<svg width="16" height="10" viewBox="0 0 16 10" fill="none" xmlns="http://www.w3.org/2000/svg">
<path d="M1.12773 0.823215L7.99998 7.52221L14.8722 0.823213C14.995 0.703283 15.1598 0.636141 15.3315 0.636141C15.5031 0.636141 15.668 0.703283 15.7907 0.823213C15.8502 0.881464 15.8974 0.950992 15.9297 1.02773C15.9619 1.10446 15.9785 1.18686 15.9785 1.27009C15.9785 1.35332 15.9619 1.43572 15.9297 1.51245C15.8974 1.58918 15.8502 1.65871 15.7907 1.71696L8.47986 8.84496C8.35147 8.9701 8.17927 9.04014 7.99998 9.04014C7.82069 9.04014 7.6485 8.9701 7.52011 8.84496L0.20923 1.71834C0.149357 1.66004 0.10177 1.59035 0.0692769 1.51336C0.0367833 1.43637 0.0200434 1.35365 0.0200434 1.27009C0.0200434 1.18653 0.0367833 1.10381 0.0692768 1.02682C0.101769 0.949832 0.149357 0.880134 0.209229 0.821839C0.332014 0.701909 0.496842 0.634767 0.66848 0.634767C0.840117 0.634767 1.00495 0.701908 1.12773 0.821839L1.12773 0.823215Z" fill="white"/>
</svg>
