<svg width="12" height="12" viewBox="0 0 12 12" fill="none" xmlns="http://www.w3.org/2000/svg">
<path fill-rule="evenodd" clip-rule="evenodd" d="M11.8537 0.145978C11.9002 0.192424 11.9372 0.247599 11.9624 0.308345C11.9876 0.36909 12.0005 0.434211 12.0005 0.499978C12.0005 0.565746 11.9876 0.630867 11.9624 0.691612C11.9372 0.752357 11.9002 0.807533 11.8537 0.853978L0.853655 11.854C0.759768 11.9479 0.632431 12.0006 0.499655 12.0006C0.366879 12.0006 0.239542 11.9479 0.145655 11.854C0.0517683 11.7601 -0.000976562 11.6328 -0.000976562 11.5C-0.000976562 11.3672 0.0517683 11.2399 0.145655 11.146L11.1457 0.145978C11.1921 0.099415 11.2473 0.0624722 11.308 0.0372658C11.3688 0.0120593 11.4339 -0.000915527 11.4997 -0.000915527C11.5654 -0.000915527 11.6305 0.0120593 11.6913 0.0372658C11.752 0.0624722 11.8072 0.099415 11.8537 0.145978Z" fill="#ED6A08"/>
<path fill-rule="evenodd" clip-rule="evenodd" d="M0.145917 0.145978C0.0993539 0.192424 0.0624112 0.247599 0.0372047 0.308345C0.0119983 0.36909 -0.000976562 0.434211 -0.000976562 0.499978C-0.000976562 0.565746 0.0119983 0.630867 0.0372047 0.691612C0.0624112 0.752357 0.0993539 0.807533 0.145917 0.853978L11.1459 11.854C11.2398 11.9479 11.3671 12.0006 11.4999 12.0006C11.6327 12.0006 11.76 11.9479 11.8539 11.854C11.9478 11.7601 12.0005 11.6328 12.0005 11.5C12.0005 11.3672 11.9478 11.2399 11.8539 11.146L0.853917 0.145978C0.807472 0.099415 0.752296 0.0624722 0.691551 0.0372658C0.630806 0.0120593 0.565685 -0.000915527 0.499917 -0.000915527C0.43415 -0.000915527 0.369029 0.0120593 0.308284 0.0372658C0.247538 0.0624722 0.192363 0.099415 0.145917 0.145978Z" fill="#ED6A08"/>
</svg>
