<svg width="12" height="13" viewBox="0 0 12 13" fill="none" xmlns="http://www.w3.org/2000/svg">
<path fill-rule="evenodd" clip-rule="evenodd" d="M11.8537 0.646009C11.9002 0.692454 11.9372 0.74763 11.9624 0.808375C11.9876 0.86912 12.0005 0.934242 12.0005 1.00001C12.0005 1.06578 11.9876 1.1309 11.9624 1.19164C11.9372 1.25239 11.9002 1.30756 11.8537 1.35401L0.853655 12.354C0.759768 12.4479 0.632431 12.5006 0.499655 12.5006C0.366879 12.5006 0.239542 12.4479 0.145655 12.354C0.0517683 12.2601 -0.000976562 12.1328 -0.000976562 12C-0.000976562 11.8672 0.0517683 11.7399 0.145655 11.646L11.1457 0.646009C11.1921 0.599445 11.2473 0.562503 11.308 0.537296C11.3688 0.51209 11.4339 0.499115 11.4997 0.499115C11.5654 0.499115 11.6305 0.51209 11.6913 0.537296C11.752 0.562503 11.8072 0.599445 11.8537 0.646009Z" fill="white"/>
<path fill-rule="evenodd" clip-rule="evenodd" d="M0.145917 0.646009C0.0993539 0.692454 0.0624112 0.74763 0.0372047 0.808375C0.0119983 0.86912 -0.000976562 0.934242 -0.000976562 1.00001C-0.000976562 1.06578 0.0119983 1.1309 0.0372047 1.19164C0.0624112 1.25239 0.0993539 1.30756 0.145917 1.35401L11.1459 12.354C11.2398 12.4479 11.3671 12.5006 11.4999 12.5006C11.6327 12.5006 11.76 12.4479 11.8539 12.354C11.9478 12.2601 12.0005 12.1328 12.0005 12C12.0005 11.8672 11.9478 11.7399 11.8539 11.646L0.853917 0.646009C0.807472 0.599445 0.752296 0.562503 0.691551 0.537296C0.630806 0.51209 0.565685 0.499115 0.499917 0.499115C0.43415 0.499115 0.369029 0.51209 0.308284 0.537296C0.247538 0.562503 0.192363 0.599445 0.145917 0.646009Z" fill="white"/>
</svg>
