<svg width="10" height="16" viewBox="0 0 10 16" fill="none" xmlns="http://www.w3.org/2000/svg">
<path d="M8.09272 0.209206L0.967461 7.51871C0.842317 7.64709 0.772278 7.81929 0.772278 7.99858C0.772278 8.17787 0.842317 8.35007 0.967461 8.47845L8.09272 15.7907C8.15101 15.8506 8.22071 15.8982 8.2977 15.9307C8.37469 15.9632 8.4574 15.9799 8.54097 15.9799C8.62453 15.9799 8.70725 15.9632 8.78424 15.9307C8.86123 15.8982 8.93092 15.8506 8.98922 15.7907C9.10915 15.6679 9.17629 15.5031 9.17629 15.3315C9.17629 15.1598 9.10915 14.995 8.98922 14.8722L2.28884 7.99858L8.98922 1.12633C9.10874 1.00361 9.17562 0.839073 9.17562 0.667768C9.17562 0.496463 9.10874 0.331927 8.98922 0.209206C8.93092 0.149334 8.86123 0.101747 8.78424 0.0692534C8.70725 0.0367602 8.62453 0.0200195 8.54097 0.0200195C8.4574 0.0200195 8.37469 0.0367602 8.2977 0.0692534C8.22071 0.101747 8.15101 0.149334 8.09272 0.209206Z" fill="#1B1918"/>
</svg>
