<svg width="24" height="30" viewBox="0 0 24 30" fill="none" xmlns="http://www.w3.org/2000/svg">
<path d="M12 13.5C13.2426 13.5 14.25 12.4926 14.25 11.25C14.25 10.0074 13.2426 9 12 9C10.7574 9 9.75 10.0074 9.75 11.25C9.75 12.4926 10.7574 13.5 12 13.5Z" fill="#ED6A08"/>
<path d="M12 1.5022e-08C8.83808 -0.000158085 5.80388 1.24764 3.55686 3.47219C1.30985 5.69674 0.0316191 8.71824 0 11.88C0 20.1 10.575 29.25 11.025 29.64C11.2967 29.8724 11.6425 30.0001 12 30.0001C12.3575 30.0001 12.7033 29.8724 12.975 29.64C13.5 29.25 24 20.1 24 11.88C23.9684 8.71824 22.6902 5.69674 20.4431 3.47219C18.1961 1.24764 15.1619 -0.000158085 12 1.5022e-08ZM12 16.5C10.9616 16.5 9.94661 16.1921 9.08326 15.6152C8.2199 15.0383 7.54699 14.2184 7.14963 13.2591C6.75227 12.2998 6.6483 11.2442 6.85088 10.2258C7.05345 9.20738 7.55346 8.27192 8.28769 7.53769C9.02192 6.80346 9.95737 6.30345 10.9758 6.10088C11.9942 5.89831 13.0498 6.00227 14.0091 6.39963C14.9684 6.79699 15.7883 7.4699 16.3652 8.33326C16.9421 9.19662 17.25 10.2116 17.25 11.25C17.25 12.6424 16.6969 13.9777 15.7123 14.9623C14.7277 15.9469 13.3924 16.5 12 16.5V16.5Z" fill="#ED6A08"/>
</svg>
