<svg width="32" height="32" viewBox="0 0 32 32" fill="none" xmlns="http://www.w3.org/2000/svg">
<path d="M30.8078 1.20996C30.6371 1.04029 30.4215 0.92282 30.1863 0.871356C29.951 0.819893 29.706 0.836577 29.4799 0.919447L1.65817 11.0242C1.41823 11.1151 1.21166 11.2767 1.06588 11.4877C0.920112 11.6986 0.842041 11.9489 0.842041 12.2052C0.842041 12.4615 0.920112 12.7117 1.06588 12.9227C1.21166 13.1336 1.41823 13.2953 1.65817 13.3862L12.5213 17.7186L20.539 9.68531L22.3221 11.4663L14.2665 19.5122L18.6168 30.3621C18.7105 30.5972 18.8727 30.7987 19.0824 30.9405C19.2921 31.0824 19.5396 31.1581 19.7929 31.1579C20.0485 31.1527 20.2964 31.0702 20.5041 30.9214C20.7118 30.7726 20.8695 30.5644 20.9563 30.3242L31.0734 2.53621C31.1595 2.31273 31.1803 2.0694 31.1333 1.83459C31.0863 1.59977 30.9734 1.38314 30.8078 1.20996Z" fill="#ED6A08"/>
</svg>
