<svg width="35" height="34" viewBox="0 0 35 34" fill="none" xmlns="http://www.w3.org/2000/svg">
<path d="M14.22 19.64C16.3075 21.7576 18.8333 23.3926 21.62 24.43L25.39 21.43C25.5018 21.353 25.6343 21.3118 25.77 21.3118C25.9057 21.3118 26.0382 21.353 26.15 21.43L33.15 25.94C33.4157 26.0998 33.6407 26.3191 33.8071 26.5808C33.9735 26.8424 34.0768 27.1392 34.1088 27.4476C34.1408 27.756 34.1006 28.0677 33.9915 28.3579C33.8824 28.6482 33.7073 28.909 33.48 29.12L30.2 32.36C29.7303 32.8241 29.1529 33.1647 28.5195 33.3514C27.8861 33.5381 27.2164 33.5651 26.57 33.43C20.1222 32.0983 14.1791 28.9795 9.41999 24.43C4.76648 19.8352 1.54627 13.9888 0.149995 7.59998C0.0120608 6.96362 0.0408495 6.30242 0.233571 5.68046C0.426292 5.05849 0.77641 4.49686 1.24999 4.04998L4.64999 0.769983C4.86039 0.553771 5.11698 0.387958 5.40054 0.284961C5.6841 0.181964 5.98729 0.144451 6.28741 0.175232C6.58752 0.206013 6.87678 0.30429 7.13353 0.462704C7.39028 0.621117 7.60787 0.835563 7.77 1.08998L12.43 7.99998C12.5104 8.10849 12.5538 8.23995 12.5538 8.37498C12.5538 8.51002 12.5104 8.64148 12.43 8.74998L9.35999 12.44C10.4256 15.1709 12.0857 17.6304 14.22 19.64Z" fill="#ED6A08"/>
</svg>
