<svg width="66" height="67" viewBox="0 0 66 67" fill="none" xmlns="http://www.w3.org/2000/svg">
<path d="M2.21576 10.8335L30.7838 6.15993C31.311 6.0733 31.8077 6.43102 31.8939 6.95786C31.9802 7.48482 31.6228 7.98188 31.096 8.06799L2.52797 12.7417C2.12824 12.8071 1.88319 13.1535 1.94351 13.4961L2.83039 18.5408C42.416 12.0432 40.1681 12.4872 40.7523 12.2759C44.0344 11.0894 42.7673 6.15658 39.0438 6.76785L35.5489 7.33942C35.0221 7.42527 34.525 7.06833 34.4387 6.54149C34.3524 6.01452 34.7099 5.51746 35.2367 5.43135L38.7312 4.85965C40.2334 4.6137 41.8336 4.96316 43.002 6.04249L46.3103 5.50135C46.2462 4.59991 45.6121 3.43679 46.5351 2.13638C46.9706 1.52266 47.6241 1.11712 48.3748 0.994276L51.1576 0.539109C52.5146 0.315843 53.8135 1.09418 54.2614 2.31917C54.698 2.34199 57.604 1.22489 59.838 3.28842L62.5572 2.84356C65.261 2.4009 66.895 5.49993 65.4787 7.49488C65.0259 8.13283 64.3447 8.55487 63.5606 8.68313L60.867 9.12373C59.4578 11.8034 56.3578 11.6438 55.926 11.8137C55.9123 13.0909 54.9702 14.2581 53.5865 14.4844C50.7757 14.9324 50.7454 14.9774 50.3401 14.9774C49.0004 14.9774 47.8101 14.0325 47.5762 12.702L47.3363 11.3374L44.0311 11.8782C43.2924 13.2824 41.9084 14.107 40.4289 14.3491L38.1741 14.718C38.1676 14.7309 34.8702 21.2288 34.8211 21.3043C34.0015 22.5632 32.6698 23.4264 31.1678 23.6721L25.6835 24.5694V29.3205H27.1766C28.2726 29.3205 29.1642 30.212 29.1642 31.3081V31.7625C29.284 32.0537 29.4237 34.2265 31.6331 35.6034C32.1907 35.9509 32.5236 36.5564 32.5236 37.2229V39.6558C32.5236 40.3721 32.1639 41.0321 31.5611 41.4215C29.4269 42.7999 29.2932 44.9026 29.1641 45.2167V45.4714C29.1641 46.6461 28.2082 47.6021 27.0334 47.6021H25.6835V55.5012C26.5126 55.9125 27.0853 56.7656 27.0853 57.7522V63.9863C27.0853 65.3724 25.9577 66.5001 24.5715 66.5001H22.0446C21.5105 66.5001 21.0778 66.0673 21.0778 65.5333C21.0778 64.9992 21.5105 64.5665 22.0446 64.5665H24.5717C24.8861 64.5665 25.1518 64.3008 25.1518 63.9864V57.7524C25.1518 57.438 24.8861 57.1723 24.5717 57.1723H11.4234C11.109 57.1723 10.8433 57.438 10.8433 57.7524V63.9864C10.8433 64.3008 11.109 64.5665 11.4234 64.5665H17.5329C18.0669 64.5665 18.4997 64.9992 18.4997 65.5333C18.4997 66.0673 18.0669 66.5001 17.5329 66.5001H11.4234C10.0373 66.5001 8.9096 65.3724 8.9096 63.9863V57.7522C8.9096 56.7657 9.48233 55.9124 10.3114 55.5012V34.7992C10.3114 34.2652 10.7442 33.8324 11.2782 33.8324C11.8123 33.8324 12.245 34.2652 12.245 34.7992V55.2384H23.7498C23.7498 48.7451 23.7498 26.8656 23.7498 17.078C20.8347 17.5548 6.09983 19.9655 3.16516 20.4456L4.05203 25.4908C4.11404 25.8436 4.47703 26.0787 4.86053 26.0167L9.14227 25.3163C10.7517 25.052 12.2224 26.2914 12.2292 27.9279L12.2392 30.2833C12.2416 30.8173 11.8105 31.252 11.2766 31.2542C10.7319 31.2542 10.3078 30.8173 10.3056 30.2915L10.2956 27.9362C10.2937 27.4905 9.8947 27.1528 9.45448 27.2245L5.17248 27.9249C3.74717 28.1589 2.39185 27.216 2.14732 25.8254C1.92883 24.5827 0.261551 15.0989 0.0386734 13.8311C-0.209724 12.4161 0.762352 11.0711 2.21576 10.8335ZM61.4044 7.07645C62.9479 6.75586 63.5213 6.91196 63.9019 6.37584C64.1793 5.985 64.0187 5.62381 64.0146 5.50856C63.9269 5.0097 63.4203 4.66217 62.8694 4.75176L61.0458 5.05005C61.3009 5.68259 61.4304 6.36115 61.4044 7.07645ZM55.6376 9.90168L56.9523 9.68667C60.9291 9.03659 59.9182 3.35326 55.8793 4.01364L54.6382 4.21667C54.9742 6.12796 55.0668 6.65441 55.6376 9.90168ZM49.4807 12.3677C49.5575 12.8045 50.0208 13.108 50.4913 13.0315L53.2744 12.5764C53.7557 12.4975 54.0556 12.069 53.9826 11.6548C53.9803 11.6418 53.8964 11.1647 53.8987 11.1777C53.7697 10.4439 52.6431 4.03556 52.4807 3.11156C52.4042 2.67611 51.9427 2.37022 51.47 2.44756C48.8666 2.94772 48.4652 2.75835 48.112 3.25606C47.7632 3.74745 48.013 3.55499 49.4807 12.3677ZM44.5686 9.83091L47.0014 9.43298C46.9712 9.26089 46.6937 7.68231 46.6452 7.40593L44.2099 7.80438C44.4714 8.45304 44.594 9.13147 44.5686 9.83091ZM29.1641 40.923C30.1469 39.8731 30.5898 39.8847 30.5898 39.6558V37.2317C30.0605 36.8994 29.5824 36.5039 29.1641 36.0575V40.923ZM25.6835 45.6685H27.0334C27.1421 45.6685 27.2304 45.5802 27.2304 45.4715C27.2609 30.1829 27.2353 31.2543 27.1765 31.2543H25.6834V45.6685H25.6835ZM25.6835 22.6099L30.8556 21.7637C31.8223 21.6056 32.677 21.0535 33.2008 20.2491C33.2093 20.2361 35.802 15.118 35.8085 15.105L25.6835 16.7615V22.6099Z" fill="white"/>
</svg>
