<?xml version="1.0" encoding="iso-8859-1"?>
<!-- Generator: Adobe Illustrator 19.0.0, SVG Export Plug-In . SVG Version: 6.00 Build 0)  -->
<svg version="1.1" id="Capa_1" xmlns="http://www.w3.org/2000/svg" xmlns:xlink="http://www.w3.org/1999/xlink" x="0px" y="0px"
	 viewBox="0 0 512.001 512.001" style="enable-background:new 0 0 512.001 512.001;" xml:space="preserve"  >
	 <defs>
	 	<style>
		 	
			 .main {
				 transform: rotateY(180deg);
    transform-origin: bottom;
			 }
		 </style>
	 </defs>
<g class="main" transform="rotateY(180)">
	<g>
		<path fill="white" d="M372.384,172.844c-11.58,0-21.001,9.421-21.001,21.001s9.421,21.001,21.001,21.001s21.001-9.421,21.001-21.001
			C393.385,182.265,383.963,172.844,372.384,172.844z M372.384,199.845c-3.309,0-6-2.691-6-6c0-3.309,2.691-6,6-6s6,2.691,6,6
			C378.384,197.154,375.693,199.845,372.384,199.845z"/>
	</g>
</g>
<g class="main">
	<g>
		<path fill="white" d="M494.812,80.16L273.193,43.904c-4.09-0.672-7.943,2.103-8.612,6.19c-0.669,4.088,2.103,7.944,6.19,8.612L492.39,94.963
			c3.101,0.507,5.002,3.194,4.534,5.852l-6.88,39.135C182.955,89.544,200.393,92.988,195.861,91.349
			C170.4,82.145,180.23,43.878,209.115,48.62l27.112,4.434c4.087,0.666,7.943-2.103,8.613-6.19c0.669-4.088-2.104-7.944-6.191-8.612
			l-27.109-4.435c-11.653-1.908-24.067,0.803-33.131,9.176l-25.664-4.198c0.497-6.993,5.416-16.016-1.744-26.104
			c-3.379-4.761-8.448-7.907-14.272-8.86l-21.588-3.531c-10.527-1.732-20.603,4.306-24.078,13.809
			c-3.387,0.177-25.93-8.489-43.261,7.519l-21.094-3.451C5.733,14.743-6.943,38.784,4.044,54.26
			c3.513,4.949,8.797,8.223,14.88,9.218l20.896,3.418c10.932,20.788,34.98,19.55,38.33,20.868
			c0.106,9.908,7.415,18.962,18.149,20.718c21.805,3.475,22.04,3.824,25.184,3.824c10.393,0,19.627-7.33,21.441-17.651l1.861-10.586
			l25.641,4.195c5.73,10.893,16.467,17.29,27.944,19.168l17.492,2.862c0.05,0.1,25.63,50.508,26.011,51.094
			c6.358,9.766,16.689,16.462,28.341,18.368l42.545,6.961v36.857h-11.583c-8.502,0-15.419,6.916-15.419,15.419v3.525
			c-0.929,2.259-2.013,19.115-19.153,29.796c-4.325,2.696-6.908,7.393-6.908,12.564v18.873c0,5.557,2.791,10.677,7.467,13.698
			c16.556,10.693,17.593,27.005,18.595,29.441v1.976c0,9.113,7.415,16.529,16.529,16.529h10.472v61.278
			c-6.432,3.191-10.875,9.809-10.875,17.463v48.361c0,10.753,8.748,19.501,19.501,19.501h19.603c4.143,0,7.5-3.357,7.5-7.5
			c0-4.143-3.357-7.5-7.5-7.5h-19.604c-2.439,0-4.5-2.061-4.5-4.5v-48.361c0-2.439,2.061-4.5,4.5-4.5h101.999
			c2.439,0,4.5,2.061,4.5,4.5v48.361c0,2.439-2.061,4.5-4.5,4.5h-47.395c-4.143,0-7.5,3.357-7.5,7.5c0,4.143,3.357,7.5,7.5,7.5
			h47.395c10.753,0,19.501-8.748,19.501-19.501v-48.361c0-7.653-4.443-14.273-10.875-17.463V266.076c0-4.143-3.357-7.5-7.5-7.5
			s-7.5,3.357-7.5,7.5v158.559H327.76c0-50.373,0-220.105,0-296.033c22.614,3.699,136.921,22.4,159.687,26.124l-6.88,39.139
			c-0.481,2.737-3.297,4.561-6.272,4.08l-33.216-5.434c-12.485-2.05-23.894,7.565-23.947,20.26l-0.078,18.272
			c-0.018,4.143,3.326,7.515,7.468,7.532c4.225,0,7.515-3.389,7.532-7.468l0.078-18.272c0.015-3.457,3.11-6.077,6.525-5.521
			l33.218,5.434c11.057,1.815,21.571-5.5,23.468-16.287c1.695-9.641,14.629-83.212,16.358-93.047
			C513.628,92.437,506.087,82.003,494.812,80.16z M35.651,51.014c-11.974-2.487-16.422-1.276-19.375-5.435
			c-2.152-3.032-0.906-5.834-0.874-6.728c0.68-3.87,4.61-6.566,8.884-5.871l14.147,2.314C36.454,40.201,35.449,45.465,35.651,51.014
			z M80.387,72.931l-10.199-1.668c-30.85-5.043-23.008-49.132,8.324-44.009l9.628,1.575C85.534,43.656,84.815,47.74,80.387,72.931z
			 M128.15,92.061c-0.596,3.389-4.19,5.743-7.84,5.15L98.72,93.68c-3.734-0.612-6.06-3.936-5.494-7.149
			c0.018-0.101,0.669-3.802,0.651-3.701c1.001-5.693,9.74-55.406,11-62.574c0.594-3.378,4.174-5.751,7.841-5.151
			c20.196,3.88,23.31,2.411,26.05,6.272C141.474,25.189,139.536,23.696,128.15,92.061z M166.256,72.382l-18.873-3.087
			c0.235-1.335,2.387-13.581,2.764-15.725l18.892,3.091C167.01,61.693,166.059,66.956,166.256,72.382z M285.758,313.582
			c-7.624-8.145-11.06-8.055-11.06-9.831v-18.805c4.106-2.578,7.815-5.646,11.06-9.109V313.582z M312.759,350.395h-10.472v0
			c-0.843,0-1.528-0.685-1.528-1.528c-0.237-118.603-0.038-110.291,0.418-110.291h11.583V350.395z M312.759,171.516l-40.123-6.564
			c-7.499-1.227-14.13-5.51-18.193-11.75c-0.066-0.101-20.179-39.805-20.23-39.906l78.546,12.851V171.516z"/>
	</g>
</g>
<g>
</g>
<g>
</g>
<g>
</g>
<g>
</g>
<g>
</g>
<g>
</g>
<g>
</g>
<g>
</g>
<g>
</g>
<g>
</g>
<g>
</g>
<g>
</g>
<g>
</g>
<g>
</g>
<g>
</g>
</svg>
