<svg width="22" height="23" viewBox="0 0 22 23" fill="none" xmlns="http://www.w3.org/2000/svg">
<path d="M13.0927 3.70921L5.96749 11.0187C5.84235 11.1471 5.77231 11.3193 5.77231 11.4986C5.77231 11.6779 5.84235 11.8501 5.96749 11.9785L13.0927 19.2907C13.151 19.3506 13.2207 19.3982 13.2977 19.4307C13.3747 19.4632 13.4574 19.4799 13.541 19.4799C13.6246 19.4799 13.7073 19.4632 13.7843 19.4307C13.8613 19.3982 13.931 19.3506 13.9893 19.2907C14.1092 19.1679 14.1763 19.0031 14.1763 18.8315C14.1763 18.6598 14.1092 18.495 13.9893 18.3722L7.28887 11.4986L13.9893 4.62633C14.1088 4.50361 14.1757 4.33907 14.1757 4.16777C14.1757 3.99646 14.1088 3.83193 13.9893 3.70921C13.931 3.64933 13.8613 3.60175 13.7843 3.56925C13.7073 3.53676 13.6246 3.52002 13.541 3.52002C13.4574 3.52002 13.3747 3.53676 13.2977 3.56925C13.2207 3.60175 13.151 3.64933 13.0927 3.70921Z" fill="white"/>
</svg>
