<svg width="22" height="23" viewBox="0 0 22 23" fill="none" xmlns="http://www.w3.org/2000/svg">
<path d="M8.90728 19.2908L16.0325 11.9813C16.1577 11.8529 16.2277 11.6807 16.2277 11.5014C16.2277 11.3221 16.1577 11.1499 16.0325 11.0215L8.90728 3.70929C8.84899 3.64942 8.77929 3.60184 8.7023 3.56934C8.62531 3.53685 8.5426 3.52011 8.45903 3.52011C8.37547 3.52011 8.29275 3.53685 8.21576 3.56934C8.13877 3.60184 8.06908 3.64942 8.01078 3.70929C7.89085 3.83208 7.82371 3.99691 7.82371 4.16854C7.82371 4.34018 7.89085 4.50501 8.01078 4.62779L14.7112 11.5014L8.01078 18.3737C7.89126 18.4964 7.82438 18.6609 7.82438 18.8322C7.82438 19.0035 7.89126 19.1681 8.01078 19.2908C8.06908 19.3507 8.13877 19.3983 8.21576 19.4307C8.29275 19.4632 8.37547 19.48 8.45903 19.48C8.5426 19.48 8.62531 19.4632 8.7023 19.4307C8.77929 19.3983 8.84899 19.3507 8.90728 19.2908Z" fill="white"/>
</svg>
