<svg width="40" height="76" viewBox="0 0 40 76" fill="none" xmlns="http://www.w3.org/2000/svg">
<path d="M1.28608 70.1746L32.6496 38L1.28609 5.82539C0.724593 5.25054 0.410245 4.47884 0.410245 3.67527C0.410246 2.87169 0.724593 2.1 1.28609 1.52514C1.55881 1.2468 1.88432 1.02567 2.24357 0.874712C2.60283 0.723753 2.98859 0.645996 3.37827 0.645996C3.76795 0.645996 4.15371 0.723753 4.51297 0.874712C4.87222 1.02567 5.19774 1.2468 5.47046 1.52514L38.8424 35.7533C39.4283 36.3544 39.7562 37.1606 39.7562 38C39.7562 38.8394 39.4283 39.6456 38.8424 40.2467L5.47689 74.4749C5.20397 74.7552 4.87765 74.978 4.51721 75.1301C4.15676 75.2823 3.7695 75.3606 3.37827 75.3606C2.98704 75.3606 2.59977 75.2823 2.23933 75.1301C1.87888 74.978 1.55257 74.7552 1.27964 74.4749C0.71815 73.9 0.403805 73.1283 0.403805 72.3248C0.403805 71.5212 0.71815 70.7495 1.27964 70.1746L1.28608 70.1746Z" fill="white"/>
</svg>
