<svg width="40" height="76" viewBox="0 0 40 76" fill="none" xmlns="http://www.w3.org/2000/svg">
<path d="M38.7139 5.82536L7.35044 38L38.7139 70.1746C39.2754 70.7495 39.5898 71.5212 39.5898 72.3247C39.5898 73.1283 39.2754 73.9 38.7139 74.4749C38.4412 74.7532 38.1157 74.9743 37.7564 75.1253C37.3972 75.2762 37.0114 75.354 36.6217 75.354C36.232 75.354 35.8463 75.2762 35.487 75.1253C35.1278 74.9743 34.8023 74.7532 34.5295 74.4749L1.15757 40.2467C0.571665 39.6456 0.243754 38.8394 0.243754 38C0.243754 37.1606 0.571665 36.3544 1.15757 35.7533L34.5231 1.5251C34.796 1.2448 35.1223 1.022 35.4828 0.869873C35.8432 0.717743 36.2305 0.639374 36.6217 0.639374C37.013 0.639374 37.4002 0.717743 37.7607 0.869873C38.1211 1.022 38.4474 1.2448 38.7204 1.5251C39.2818 2.09996 39.5962 2.87166 39.5962 3.67523C39.5962 4.47881 39.2818 5.2505 38.7204 5.82536L38.7139 5.82536Z" fill="white"/>
</svg>
