<svg width="20" height="17" viewBox="0 0 20 17" fill="none" xmlns="http://www.w3.org/2000/svg">
<path d="M19.5734 8.92969L16.8234 2.05469L16.7805 1.97734L16.7289 1.90859C16.7203 1.9 16.7203 1.9 16.7203 1.89141L16.6516 1.82266C16.6493 1.82266 16.6471 1.82175 16.6455 1.82014C16.6439 1.81853 16.643 1.81634 16.643 1.81406L16.5828 1.77109L16.5656 1.75391L16.4883 1.71094H16.4711L16.4023 1.68516H16.3852L16.2992 1.66797H16.0414L10.6875 2.82812V0.9375C10.6875 0.755164 10.6151 0.580295 10.4861 0.451364C10.3572 0.322433 10.1823 0.25 10 0.25C9.81766 0.25 9.6428 0.322433 9.51386 0.451364C9.38493 0.580295 9.3125 0.755164 9.3125 0.9375V3.1375L3.66641 4.39219H3.60625L3.52031 4.42656H3.50313L3.43437 4.46094C3.43437 4.46207 3.43415 4.46318 3.43372 4.46423C3.43329 4.46527 3.43266 4.46622 3.43186 4.46701C3.43106 4.46781 3.43011 4.46844 3.42907 4.46888C3.42803 4.46931 3.42691 4.46953 3.42578 4.46953L3.34844 4.52969C3.34844 4.53197 3.34753 4.53415 3.34592 4.53576C3.34431 4.53738 3.34212 4.53828 3.33984 4.53828L3.28828 4.59844H3.27969C3.25684 4.61996 3.2392 4.64641 3.22813 4.67578L3.21094 4.69297L3.17656 4.77031H3.16797L0.426563 11.6797C0.39295 11.7615 0.375442 11.849 0.375 11.9375C0.375 13.9398 2.48047 14.6875 3.8125 14.6875C5.14453 14.6875 7.25 13.9398 7.25 11.9375C7.24956 11.849 7.23205 11.7615 7.19844 11.6797L4.74922 5.56094L9.3125 4.54688V15.375H7.9375C7.75516 15.375 7.5803 15.4474 7.45136 15.5764C7.32243 15.7053 7.25 15.8802 7.25 16.0625C7.25 16.2448 7.32243 16.4197 7.45136 16.5486C7.5803 16.6776 7.75516 16.75 7.9375 16.75H12.0625C12.2448 16.75 12.4197 16.6776 12.5486 16.5486C12.6776 16.4197 12.75 16.2448 12.75 16.0625C12.75 15.8802 12.6776 15.7053 12.5486 15.5764C12.4197 15.4474 12.2448 15.375 12.0625 15.375H10.6875V4.2375L15.0617 3.26641L12.8016 8.92969C12.768 9.01151 12.7504 9.09905 12.75 9.1875C12.75 11.1898 14.8555 11.9375 16.1875 11.9375C17.5195 11.9375 19.625 11.1898 19.625 9.1875C19.6246 9.09905 19.607 9.01151 19.5734 8.92969ZM5.82344 11.9375H1.80156L3.8125 6.91016L5.82344 11.9375ZM14.1766 9.1875L16.1875 4.16016L18.1984 9.1875H14.1766Z" fill="white"/>
</svg>
