<?xml version="1.0" encoding="utf-8"?>
<!-- Generator: Adobe Illustrator 26.0.1, SVG Export Plug-In . SVG Version: 6.00 Build 0)  -->
<svg version="1.1" id="Layer_1" xmlns="http://www.w3.org/2000/svg" xmlns:xlink="http://www.w3.org/1999/xlink" x="0px" y="0px"
	 viewBox="0 0 168.7 100.7" style="enable-background:new 0 0 168.7 100.7;" xml:space="preserve">
<style type="text/css">
	.st0{fill-rule:evenodd;clip-rule:evenodd;fill:#1B1918;}
	.st1{fill-rule:evenodd;clip-rule:evenodd;fill:#ED6A08;}
</style>
<path class="st0" d="M101.5,67.1L101.5,67.1 M111.6,67.1L111.6,67.1 M125,67.1L125,67.1 M135.1,67.1L135.1,67.1 M68,0l33.6,0
	l16.8,33.5L135.1,0v0h33.6v67.1h-33.6V46.8L125,67.1h-13.4l-10.1-20.3v0v20.3H68V0z"/>
<rect x="68" y="99" class="st0" width="100.7" height="1.7"/>
<path class="st1" d="M148.7,86.6l2.4-0.2c0.1,0.7,0.4,1.3,0.8,1.8c0.4,0.5,1.1,0.9,1.9,1.1c0.9,0.3,1.8,0.4,2.9,0.4
	c1,0,1.8-0.1,2.5-0.3c0.7-0.2,1.3-0.5,1.6-0.9c0.4-0.4,0.5-0.8,0.5-1.3c0-0.5-0.2-0.9-0.5-1.2c-0.3-0.3-0.9-0.6-1.7-0.9
	c-0.5-0.2-1.6-0.4-3.4-0.7c-1.8-0.3-3-0.6-3.7-0.9c-0.9-0.4-1.6-0.8-2-1.4c-0.4-0.5-0.7-1.2-0.7-1.8c0-0.7,0.3-1.4,0.8-2.1
	c0.5-0.7,1.3-1.1,2.4-1.5c1-0.3,2.2-0.5,3.5-0.5c1.4,0,2.7,0.2,3.7,0.5c1.1,0.4,1.9,0.9,2.5,1.6c0.6,0.7,0.9,1.5,0.9,2.3l-2.4,0.1
	c-0.1-0.9-0.6-1.6-1.3-2.1c-0.8-0.5-1.9-0.7-3.3-0.7c-1.5,0-2.6,0.2-3.3,0.6c-0.7,0.4-1,1-1,1.6c0,0.5,0.2,1,0.7,1.3
	c0.5,0.3,1.8,0.7,3.8,1.1c2,0.4,3.5,0.7,4.2,0.9c1.1,0.4,1.9,0.9,2.5,1.5c0.5,0.6,0.8,1.3,0.8,2.1c0,0.8-0.3,1.5-0.9,2.2
	c-0.6,0.7-1.4,1.2-2.5,1.6s-2.3,0.6-3.7,0.6c-1.7,0-3.2-0.2-4.3-0.6c-1.2-0.4-2.1-1-2.7-1.8C149.1,88.5,148.7,87.6,148.7,86.6z
	 M134.7,91.3V76.6h2.5v13h9.4v1.7H134.7z M115.9,84.2c0,1.8,0.6,3.2,1.8,4.2c1.2,1,2.8,1.5,4.6,1.5c1.9,0,3.5-0.5,4.7-1.6
	c1.2-1,1.8-2.5,1.8-4.4c0-1.2-0.3-2.2-0.8-3.1c-0.5-0.9-1.3-1.6-2.3-2.1c-1-0.5-2.1-0.7-3.4-0.7c-1.8,0-3.3,0.5-4.6,1.4
	C116.6,80.4,115.9,81.9,115.9,84.2z M113.3,84.1c0-2.4,0.8-4.4,2.5-5.8c1.7-1.4,3.9-2.1,6.6-2.1c1.8,0,3.3,0.3,4.8,1
	c1.4,0.7,2.5,1.6,3.2,2.7c0.7,1.2,1.1,2.5,1.1,4c0,1.5-0.4,2.8-1.2,4c-0.8,1.2-1.9,2.1-3.3,2.7c-1.4,0.6-3,0.9-4.6,0.9
	c-1.8,0-3.4-0.3-4.8-1c-1.4-0.7-2.5-1.6-3.2-2.8C113.7,86.7,113.3,85.4,113.3,84.1z M95.2,84.2c0,1.8,0.6,3.2,1.8,4.2
	c1.2,1,2.8,1.5,4.6,1.5c1.9,0,3.5-0.5,4.7-1.6c1.2-1,1.8-2.5,1.8-4.4c0-1.2-0.3-2.2-0.8-3.1c-0.5-0.9-1.3-1.6-2.3-2.1
	c-1-0.5-2.1-0.7-3.4-0.7c-1.8,0-3.3,0.5-4.6,1.4C95.9,80.4,95.2,81.9,95.2,84.2z M92.6,84.1c0-2.4,0.8-4.4,2.5-5.8
	c1.7-1.4,3.9-2.1,6.6-2.1c1.8,0,3.3,0.3,4.8,1c1.4,0.7,2.5,1.6,3.2,2.7c0.7,1.2,1.1,2.5,1.1,4c0,1.5-0.4,2.8-1.2,4
	c-0.8,1.2-1.9,2.1-3.3,2.7c-1.4,0.6-3,0.9-4.6,0.9c-1.8,0-3.4-0.3-4.8-1c-1.4-0.7-2.5-1.6-3.2-2.8C93,86.7,92.6,85.4,92.6,84.1z
	 M82.5,91.3v-13h-6.3v-1.7h15.1v1.7H85v13H82.5z"/>
<path class="st1" d="M68,67.2L68,67.2 M68,57L68,57 M68,43.7L68,43.7 M68,33.6L68,33.6 M0,100.7l0-33.6l34-16.8L0,33.6h0V0h68v33.6
	H47.4L68,43.6V57L47.4,67.1h0H68v33.6H0z"/>
</svg>
