<svg width="34" height="28" viewBox="0 0 34 28" fill="none" xmlns="http://www.w3.org/2000/svg">
<path d="M1.65751 12.7998C1.5993 12.5665 1.59503 12.3229 1.645 12.0877C1.69497 11.8524 1.79788 11.6316 1.94592 11.4421C2.09395 11.2525 2.28323 11.0992 2.49937 10.9937C2.71551 10.8882 2.95283 10.8334 3.19334 10.8333H30.8067C31.0472 10.8334 31.2845 10.8882 31.5006 10.9937C31.7168 11.0992 31.9061 11.2525 32.0541 11.4421C32.2021 11.6316 32.305 11.8524 32.355 12.0877C32.405 12.3229 32.4007 12.5665 32.3425 12.7998L29.4751 24.2679C29.3038 24.953 28.9085 25.5612 28.352 25.9958C27.7954 26.4304 27.1096 26.6666 26.4034 26.6667H7.59659C6.89044 26.6666 6.20458 26.4304 5.64803 25.9958C5.09148 25.5612 4.69616 24.953 4.52492 24.2679L1.65751 12.8014V12.7998Z" stroke="#ED6A08" stroke-width="2" stroke-linejoin="round"/>
<path d="M12.25 17.1667V20.3333" stroke="#ED6A08" stroke-width="2" stroke-linecap="round"/>
<path d="M21.75 17.1667V20.3333" stroke="#ED6A08" stroke-width="2" stroke-linecap="round"/>
<path d="M7.5 10.8333L13.8333 1.33333" stroke="#ED6A08" stroke-width="2" stroke-linecap="round"/>
<path d="M26.5 10.8333L20.1667 1.33333" stroke="#ED6A08" stroke-width="2" stroke-linecap="round"/>
</svg>
