<svg width="35" height="35" viewBox="0 0 35 35" fill="none" xmlns="http://www.w3.org/2000/svg">
<path d="M20.14 20.78C22.2576 18.6925 23.8926 16.1667 24.93 13.38L21.93 9.61001C21.853 9.49823 21.8118 9.36572 21.8118 9.23001C21.8118 9.09429 21.853 8.96178 21.93 8.85001L26.44 1.85C26.5998 1.58426 26.8191 1.3593 27.0808 1.1929C27.3424 1.0265 27.6392 0.923218 27.9476 0.891213C28.256 0.859207 28.5677 0.899353 28.8579 1.00848C29.1482 1.11761 29.4091 1.29272 29.62 1.52L32.86 4.80001C33.3241 5.26973 33.6647 5.84706 33.8514 6.48046C34.0382 7.11386 34.0651 7.78364 33.93 8.43001C32.5983 14.8778 29.4795 20.8209 24.93 25.58C20.3352 30.2335 14.4888 33.4537 8.1 34.85C7.46364 34.9879 6.80244 34.9592 6.18047 34.7664C5.55851 34.5737 4.99688 34.2236 4.55 33.75L1.27 30.35C1.05379 30.1396 0.887975 29.883 0.784978 29.5995C0.681981 29.3159 0.644469 29.0127 0.67525 28.7126C0.70603 28.4125 0.804307 28.1232 0.962721 27.8665C1.12113 27.6097 1.33558 27.3921 1.59 27.23L8.5 22.57C8.60851 22.4896 8.73997 22.4462 8.875 22.4462C9.01003 22.4462 9.14149 22.4896 9.25 22.57L12.94 25.64C15.6709 24.5744 18.1304 22.9143 20.14 20.78Z" fill="white"/>
</svg>
