<svg width="37" height="35" viewBox="0 0 37 35" fill="none" xmlns="http://www.w3.org/2000/svg">
<path d="M35.1331 12.8273L24.4713 11.2778L19.7052 1.6154C19.575 1.35085 19.3608 1.13669 19.0963 1.00651C18.4328 0.678971 17.6266 0.95192 17.2948 1.6154L12.5287 11.2778L1.86689 12.8273C1.57294 12.8693 1.30419 13.0079 1.09843 13.2178C0.849678 13.4735 0.712603 13.8175 0.717327 14.1742C0.722051 14.5309 0.868189 14.8711 1.12363 15.1201L8.83759 22.6409L7.01513 33.2607C6.97239 33.5078 6.99973 33.7618 7.09404 33.9941C7.18835 34.2264 7.34587 34.4276 7.54872 34.575C7.75157 34.7223 7.99165 34.8098 8.24172 34.8277C8.4918 34.8455 8.74186 34.7929 8.96357 34.6758L18.5 29.662L28.0364 34.6758C28.2968 34.8144 28.5991 34.8606 28.8889 34.8102C29.6195 34.6842 30.1108 33.9914 29.9849 33.2607L28.1624 22.6409L35.8764 15.1201C36.0863 14.9143 36.2249 14.6456 36.2669 14.3516C36.3803 13.6168 35.868 12.9365 35.1331 12.8273ZM24.9164 21.5827L26.4323 30.4136L18.5 26.248L10.5677 30.4178L12.0836 21.5869L5.66718 15.33L14.5359 14.0409L18.5 6.00778L22.4641 14.0409L31.3328 15.33L24.9164 21.5827Z" fill="#EAEAEA"/>
</svg>
