<svg width="24" height="23" viewBox="0 0 24 23" fill="none" xmlns="http://www.w3.org/2000/svg">
<path d="M1.16914 8.15506L8.11171 7.14608L11.2152 0.854283C11.3 0.682017 11.4394 0.542564 11.6117 0.457798C12.0437 0.244517 12.5687 0.422251 12.7848 0.854283L15.8883 7.14608L22.8309 8.15506C23.0223 8.18241 23.1973 8.27264 23.3312 8.40936C23.4932 8.57585 23.5825 8.79983 23.5794 9.03209C23.5763 9.26435 23.4812 9.48589 23.3148 9.64803L18.2918 14.5453L19.4785 21.4605C19.5063 21.6214 19.4885 21.7868 19.4271 21.9381C19.3657 22.0894 19.2631 22.2204 19.1311 22.3163C18.999 22.4123 18.8426 22.4693 18.6798 22.4809C18.517 22.4925 18.3541 22.4582 18.2098 22.382L12 19.1172L5.79023 22.382C5.6207 22.4722 5.42382 22.5023 5.23515 22.4695C4.75937 22.3875 4.43945 21.9363 4.52148 21.4605L5.7082 14.5453L0.685154 9.64803C0.548435 9.51405 0.4582 9.33905 0.430857 9.14764C0.357029 8.66913 0.690622 8.22616 1.16914 8.15506ZM7.82187 13.8562L6.83476 19.6066L12 16.8941L17.1652 19.6094L16.1781 13.859L20.3562 9.78475L14.5812 8.9453L12 3.71444L9.41875 8.9453L3.64375 9.78475L7.82187 13.8562Z" fill="#ED6A08"/>
</svg>
