<svg width="37" height="35" viewBox="0 0 37 35" fill="none" xmlns="http://www.w3.org/2000/svg">
<path d="M35.1331 12.8276L24.4713 11.278L19.7052 1.61564C19.575 1.35109 19.3609 1.13693 19.0963 1.00675C18.4328 0.679215 17.6266 0.952164 17.2948 1.61564L12.5287 11.278L1.8669 12.8276C1.57296 12.8695 1.30421 13.0081 1.09845 13.2181C0.849693 13.4738 0.712618 13.8177 0.717342 14.1744C0.722067 14.5311 0.868204 14.8713 1.12364 15.1203L8.83761 22.6411L7.01515 33.261C6.97241 33.508 6.99975 33.7621 7.09406 33.9944C7.18837 34.2267 7.34588 34.4279 7.54874 34.5752C7.75159 34.7225 7.99166 34.8101 8.24174 34.8279C8.49181 34.8457 8.74188 34.7931 8.96359 34.6761L18.5 29.6622L28.0364 34.6761C28.2968 34.8147 28.5991 34.8609 28.8889 34.8105C29.6195 34.6845 30.1109 33.9916 29.9849 33.261L28.1624 22.6411L35.8764 15.1203C36.0863 14.9146 36.2249 14.6458 36.2669 14.3519C36.3803 13.617 35.868 12.9367 35.1331 12.8276Z" fill="#ED6A08"/>
</svg>
