<svg id="Layer_1" enable-background="new 0 0 64 64" height="512" viewBox="0 0 64 64" width="512" xmlns="http://www.w3.org/2000/svg"><g><g><path d="m31.973 21.514c-2.107 0-3.823 1.715-3.823 3.824 0 2.107 1.715 3.823 3.823 3.823s3.824-1.715 3.824-3.823-1.716-3.824-3.824-3.824zm0 5.715c-1.043 0-1.891-.849-1.891-1.891 0-1.044.849-1.892 1.891-1.892 1.044 0 1.892.849 1.892 1.892.001 1.043-.848 1.891-1.892 1.891z"/><g><path d="m25.008 10.748c-.534 0-.966.432-.966.966v5.066c0 .534.432.966.966.966s.966-.432.966-.966v-5.066c-.001-.534-.432-.966-.966-.966z"/><path d="m29.652 10.748c-.534 0-.966.432-.966.966v2.675c0 .534.432.966.966.966s.966-.432.966-.966v-2.675c-.001-.534-.433-.966-.966-.966z"/><path d="m34.296 10.748c-.534 0-.966.432-.966.966v2.675c0 .534.432.966.966.966s.966-.432.966-.966v-2.675c-.001-.534-.433-.966-.966-.966z"/><path d="m38.939 10.748c-.534 0-.966.432-.966.966v5.066c0 .534.432.966.966.966s.966-.432.966-.966v-5.066c0-.534-.432-.966-.966-.966z"/></g></g><path d="m60.267 9.535c-.534 0-.966.432-.966.966v.032h-10.074c-.085-1.08-.929-1.935-1.966-1.935h-2.512c-.524-1.611-2.021-2.786-3.804-2.786h-1.039v-1.568c0-1.528-1.243-2.77-2.769-2.77h-10.325c-1.527 0-2.769 1.243-2.769 2.77v1.567h-1.039c-1.783 0-3.281 1.175-3.805 2.786h-2.459c-1.037 0-1.882.854-1.967 1.935h-10.075v-.032c0-.534-.432-.966-.966-.966s-.965.432-.965.966v.998 3.557.998c0 .534.432.966.966.966s.966-.432.966-.966v-.033h10.057v.244c0 1.164.89 2.11 1.984 2.11h2.245v9.184c0 2.216 1.803 4.019 4.019 4.019h2.541v3.984c0 1.737 1.115 3.207 2.662 3.766v18.819c0 .223.077.439.219.613l2.801 3.414c.184.223.457.353.747.353.289 0 .563-.129.747-.353l2.801-3.414c.141-.173.219-.389.219-.613v-18.818c1.547-.559 2.663-2.029 2.663-3.767v-3.984h2.541c2.216 0 4.018-1.803 4.018-4.019v-9.184h2.299c1.094 0 1.983-.947 1.983-2.11v-.244h10.058v.032c0 .534.432.966.966.966s.966-.432.966-.966v-.998-3.557-.997c-.002-.534-.434-.965-.968-.965zm-6.639 4.554-.731-1.626h2.022l.73 1.626zm-27.655-9.845c0-.463.376-.839.838-.839h10.324c.462 0 .838.376.838.839v1.567h-12zm-17.622 9.845.731-1.626h2.022l-.731 1.626zm-3.653-1.626h2.266l-.731 1.626h-1.535zm7.792 1.626.731-1.626h1.535v1.626zm4.282 2.329c-.051-.026-.085-.072-.085-.154v-1.21-3.557-.79c0-.16.062-.179.202-.179h2.096v5.916s-2.04.002-2.048.002c-.061.001-.12-.005-.165-.028zm17.037 41.383-1.836 2.238-1.836-2.238v-18.221h3.672zm.575-20.152h-4.821c-1.151 0-2.088-.936-2.088-2.088v-4.924c.007-.255-.083-.512-.278-.707-1.219-1.219-1.864-2.807-1.864-4.593 0-3.661 2.979-6.64 6.64-6.64s6.64 2.979 6.64 6.64c0 1.711-.656 3.337-1.848 4.583-.188.197-.294.45-.294.723v4.916c.001 1.153-.936 2.09-2.087 2.09zm8.647-10.091c0 1.151-.936 2.088-2.087 2.088h-1.577c.762-1.3 1.177-2.775 1.177-4.308 0-4.726-3.845-8.571-8.571-8.571s-8.571 3.845-8.571 8.571c0 1.577.401 3.034 1.156 4.308h-1.555c-1.151 0-2.088-.936-2.088-2.088v-17.728c0-1.151.936-2.088 2.088-2.088h17.941c1.15 0 2.087.936 2.087 2.088zm4.281-11.294c0 .191-.096.179-.254.179h-2.097v-5.916l2.051-.002c.164 0 .3-.026.3.183v.79 3.557zm1.932-3.801h1.536l.731 1.626h-2.267zm8.522 1.626-.73-1.626h2.266v1.626z"/></g></svg>