<svg id="Capa_1" enable-background="new 0 0 512.002 512.002" height="512" viewBox="0 0 512.002 512.002" width="512" xmlns="http://www.w3.org/2000/svg"><g><path d="m55 467.002h330c5.523 0 10-4.477 10-10v-330c0-5.523-4.477-10-10-10h-330c-5.523 0-10 4.477-10 10v330c0 5.523 4.477 10 10 10zm10-330h310v310h-310z"/><path d="m502.002 0h-420c-5.523 0-10 4.477-10 10v62.002h-62.002c-5.523 0-10 4.477-10 10v420c0 5.523 4.477 10 10 10h420c5.523 0 10-4.477 10-10v-62.002h62.002c5.523 0 10-4.477 10-10v-420c0-5.523-4.477-10-10-10zm-82.002 492.002h-400v-400h400zm72.002-72.002h-52.002v-337.998c0-5.523-4.477-10-10-10h-337.998v-52.002h400z"/><path d="m98.751 202c-5.523 0-10 4.477-10 10v.007c0 5.523 4.477 9.997 10 9.997s10-4.481 10-10.004-4.477-10-10-10z"/><path d="m139.963 162.002c-5.523 0-10 4.477-10 10v.007c0 5.523 4.477 9.997 10 9.997s10-4.481 10-10.004-4.477-10-10-10z"/><path d="m178.75 202c-5.523 0-10 4.477-10 10v.007c0 5.523 4.477 9.997 10 9.997s10-4.481 10-10.004-4.477-10-10-10z"/><path d="m219.962 162.002c-5.523 0-10 4.477-10 10v.007c0 5.523 4.477 9.997 10 9.997s10-4.481 10-10.004-4.477-10-10-10z"/><path d="m258.75 202c-5.523 0-10 4.477-10 10v.007c0 5.523 4.477 9.997 10 9.997s10-4.481 10-10.004-4.477-10-10-10z"/><path d="m299.962 162.002c-5.523 0-10 4.477-10 10v.007c0 5.523 4.477 9.997 10 9.997s10-4.481 10-10.004-4.477-10-10-10z"/><path d="m338.75 202c-5.523 0-10 4.477-10 10v.007c0 5.523 4.477 9.997 10 9.997s10-4.481 10-10.004-4.477-10-10-10z"/><path d="m98.751 281.999c-5.523 0-10 4.477-10 10v.007c0 5.523 4.477 9.997 10 9.997s10-4.481 10-10.004-4.477-10-10-10z"/><path d="m139.963 241.999c-5.523 0-10 4.477-10 10v.008c0 5.523 4.477 9.996 10 9.996s10-4.481 10-10.004-4.477-10-10-10z"/><path d="m178.75 281.999c-5.523 0-10 4.477-10 10v.007c0 5.523 4.477 9.997 10 9.997s10-4.481 10-10.004-4.477-10-10-10z"/><path d="m219.962 241.999c-5.523 0-10 4.477-10 10v.008c0 5.523 4.477 9.996 10 9.996s10-4.481 10-10.004-4.477-10-10-10z"/><path d="m258.75 281.999c-5.523 0-10 4.477-10 10v.007c0 5.523 4.477 9.997 10 9.997s10-4.481 10-10.004-4.477-10-10-10z"/><path d="m299.962 241.999c-5.523 0-10 4.477-10 10v.008c0 5.523 4.477 9.996 10 9.996s10-4.481 10-10.004-4.477-10-10-10z"/><path d="m338.75 281.999c-5.523 0-10 4.477-10 10v.007c0 5.523 4.477 9.997 10 9.997s10-4.481 10-10.004-4.477-10-10-10z"/><path d="m98.751 361.997c-5.523 0-10 4.477-10 10v.007c0 5.523 4.477 9.997 10 9.997s10-4.481 10-10.004-4.477-10-10-10z"/><path d="m139.963 321.997c-5.523 0-10 4.477-10 10v.007c0 5.523 4.477 9.997 10 9.997s10-4.481 10-10.004-4.477-10-10-10z"/><path d="m178.75 361.997c-5.523 0-10 4.477-10 10v.007c0 5.523 4.477 9.997 10 9.997s10-4.481 10-10.004-4.477-10-10-10z"/><path d="m219.962 321.997c-5.523 0-10 4.477-10 10v.007c0 5.523 4.477 9.997 10 9.997s10-4.481 10-10.004-4.477-10-10-10z"/><path d="m258.75 361.997c-5.523 0-10 4.477-10 10v.007c0 5.523 4.477 9.997 10 9.997s10-4.481 10-10.004-4.477-10-10-10z"/><path d="m299.962 321.997c-5.523 0-10 4.477-10 10v.007c0 5.523 4.477 9.997 10 9.997s10-4.481 10-10.004-4.477-10-10-10z"/><path d="m338.75 361.997c-5.523 0-10 4.477-10 10v.007c0 5.523 4.477 9.997 10 9.997s10-4.481 10-10.004-4.477-10-10-10z"/><path d="m139.963 401.996c-5.523 0-10 4.477-10 10v.007c0 5.523 4.477 9.997 10 9.997s10-4.481 10-10.004-4.477-10-10-10z"/><path d="m219.962 401.996c-5.523 0-10 4.477-10 10v.007c0 5.523 4.477 9.997 10 9.997s10-4.481 10-10.004-4.477-10-10-10z"/><path d="m299.962 401.996c-5.523 0-10 4.477-10 10v.007c0 5.523 4.477 9.997 10 9.997s10-4.481 10-10.004-4.477-10-10-10z"/></g></svg>