<svg id="Layer_1" enable-background="new 0 0 512.001 512.001" height="512" viewBox="0 0 512.001 512.001" width="512" xmlns="http://www.w3.org/2000/svg"><g><g><path d="m193.486 230.106-51.627 16.362c-4.155 1.317-6.979 5.174-6.979 9.533s2.824 8.216 6.979 9.533l51.628 16.362-24.937 48.074c-2.007 3.87-1.276 8.593 1.806 11.676 1.922 1.921 4.481 2.929 7.074 2.929 1.566 0 3.145-.368 4.602-1.124l48.075-24.936 16.362 51.627c1.317 4.155 5.174 6.979 9.533 6.979s8.216-2.824 9.533-6.979l16.362-51.627 48.075 24.936c1.457.756 3.035 1.124 4.602 1.124 2.593 0 5.152-1.008 7.074-2.929 3.082-3.083 3.813-7.806 1.806-11.676l-24.936-48.075 51.627-16.362c4.155-1.317 6.979-5.174 6.979-9.533s-2.824-8.216-6.979-9.533l-51.627-16.362 24.936-48.075c2.007-3.87 1.276-8.593-1.806-11.676-3.083-3.082-7.806-3.813-11.676-1.806l-48.075 24.937-16.362-51.627c-1.317-4.155-5.174-6.979-9.533-6.979s-8.216 2.824-9.533 6.979l-16.362 51.627-48.076-24.937c-3.869-2.007-8.593-1.276-11.676 1.806-3.082 3.083-3.813 7.806-1.806 11.676zm7.347 81.063 12.003-23.141 8.458 2.68 2.68 8.458zm110.336 0-23.141-12.003 2.68-8.458 8.458-2.68zm0-110.336-12.003 23.141-8.458-2.68-2.68-8.458zm-55.168-22.853 17.209 54.3c.982 3.101 3.411 5.529 6.512 6.512l54.3 17.208-54.3 17.209c-3.101.982-5.529 3.411-6.512 6.512l-17.209 54.3-17.208-54.3c-.982-3.101-3.411-5.529-6.512-6.512l-54.301-17.209 54.3-17.208c3.101-.982 5.529-3.411 6.512-6.512zm-32.027 34.855-2.68 8.458-8.458 2.68-12.003-23.142z"/><path d="m505.022 246.468-128.041-40.579 61.845-119.233c2.007-3.87 1.276-8.593-1.806-11.676-3.082-3.082-7.806-3.813-11.676-1.806l-119.232 61.846-40.579-128.041c-1.316-4.155-5.173-6.979-9.532-6.979s-8.216 2.824-9.533 6.979l-40.579 128.042-8.053-4.177c-4.902-2.542-10.938-.63-13.481 4.272-2.543 4.903-.63 10.938 4.272 13.481l18.601 9.648c2.62 1.359 5.705 1.492 8.431.362 2.727-1.129 4.814-3.405 5.706-6.218l34.636-109.289 34.636 109.289c.892 2.813 2.979 5.089 5.706 6.218 2.725 1.13 5.812.997 8.431-.362l101.77-52.788-52.787 101.77c-1.359 2.62-1.491 5.705-.362 8.431 1.129 2.727 3.405 4.814 6.218 5.706l109.288 34.636-109.288 34.636c-2.813.892-5.088 2.979-6.218 5.706-1.129 2.726-.997 5.812.362 8.431l52.788 101.771-101.771-52.788c-2.62-1.359-5.706-1.492-8.431-.362-2.727 1.129-4.814 3.405-5.706 6.218l-34.636 109.289-34.636-109.289c-.892-2.813-2.979-5.088-5.706-6.218-2.726-1.13-5.811-.997-8.431.362l-101.77 52.788 52.788-101.771c1.359-2.62 1.491-5.705.362-8.431-1.129-2.727-3.405-4.814-6.218-5.706l-109.289-34.636 109.289-34.636c2.813-.892 5.088-2.979 6.218-5.706 1.129-2.726.997-5.812-.362-8.431l-52.788-101.77 3.266 1.694c4.903 2.542 10.938.63 13.481-4.272 2.543-4.903.63-10.938-4.272-13.481l-31.277-16.223c-3.869-2.007-8.592-1.277-11.676 1.806-3.082 3.083-3.813 7.806-1.806 11.676l61.845 119.232-128.04 40.579c-4.155 1.317-6.979 5.174-6.979 9.532s2.824 8.216 6.979 9.533l128.042 40.579-61.846 119.233c-2.007 3.87-1.276 8.593 1.806 11.676 3.083 3.082 7.806 3.813 11.676 1.806l119.232-61.845 40.579 128.041c1.317 4.155 5.174 6.979 9.533 6.979s8.216-2.824 9.533-6.979l40.579-128.041 119.232 61.845c3.868 2.007 8.593 1.276 11.676-1.806 3.082-3.083 3.813-7.806 1.806-11.676l-61.845-119.233 128.041-40.579c4.155-1.317 6.979-5.174 6.979-9.533s-2.825-8.215-6.98-9.532z"/><path d="m153.284 128.996c5.523 0 10-4.477 10-10s-4.477-10-10-10h-.007c-5.523 0-9.996 4.477-9.996 10s4.48 10 10.003 10z"/></g></g></svg>