<svg id="Capa_1" enable-background="new 0 0 512 512" height="512" viewBox="0 0 512 512" width="512" xmlns="http://www.w3.org/2000/svg"><g><g><path d="m501.394 494.986-79.429-80.718v-103.801c0-5.523-4.477-10-10-10s-10 4.477-10 10v83.477l-23.04-23.413v-247.89h23.04v98.026c0 5.523 4.477 10 10 10s10-4.477 10-10v-108.026c0-1.328-.265-2.643-.778-3.867l-43.039-102.641c-1.558-3.715-5.193-6.133-9.22-6.133h-.001c-4.028 0-7.663 2.417-9.221 6.131l-43.068 102.641c-.514 1.225-.779 2.541-.779 3.869v193.798l-161.848-164.474v-131.965c0-5.523-4.477-10-10-10h-126.278c-5.523 0-10 4.477-10 10v492c0 5.523 4.477 10 10 10h476.533c4.03 0 7.666-2.419 9.223-6.136 1.558-3.717.732-8.006-2.095-10.878zm-367.383-2.986h-106.278v-29.208h32.102c5.523 0 10-4.477 10-10s-4.477-10-10-10h-32.102v-29.208h53.125c5.523 0 10-4.477 10-10s-4.477-10-10-10h-53.125v-29.18h32.102c5.523 0 10-4.477 10-10s-4.477-10-10-10h-32.102v-29.208h53.125c5.523 0 10-4.477 10-10s-4.477-10-10-10h-53.125v-29.208h32.102c5.523 0 10-4.477 10-10s-4.477-10-10-10h-32.102v-29.18h53.125c5.523 0 10-4.477 10-10s-4.477-10-10-10h-53.125v-29.208h32.102c5.523 0 10-4.477 10-10s-4.477-10-10-10h-32.102v-29.208h53.125c5.523 0 10-4.477 10-10s-4.477-10-10-10h-53.125v-29.18h32.102c5.523 0 10-4.477 10-10s-4.477-10-10-10h-32.102v-29.212h106.278zm234.912-456.147 28.006 66.788h-56.03zm-33.065 86.788h23.068v227.565l-23.068-23.443zm73.778 369.359v-10.296c0-5.523-4.477-10-10-10s-10 4.477-10 10v10.296h-33.011v-21.436c0-5.523-4.477-10-10-10s-10 4.477-10 10v21.436h-33.04v-10.296c0-5.523-4.477-10-10-10s-10 4.477-10 10v10.296h-33.011v-21.436c0-5.523-4.477-10-10-10s-10 4.477-10 10v21.436h-33.011v-10.296c0-5.523-4.477-10-10-10s-10 4.477-10 10v10.296h-23.551v-321.519l316.384 321.519z"/><path d="m216.17 440.001h106.108c4.03 0 7.666-2.419 9.223-6.136 1.558-3.717.731-8.005-2.095-10.878l-106.108-107.828c-2.847-2.893-7.162-3.78-10.917-2.24-3.757 1.538-6.21 5.195-6.21 9.254v107.828c-.001 5.523 4.476 10 9.999 10zm10-93.408 72.238 73.409h-72.238z"/><path d="m411.966 255.539c-5.523 0-10 4.505-10 10.028s4.477 10 10 10 10-4.477 10-10v-.057c0-5.523-4.477-9.971-10-9.971z"/></g></g></svg>