<svg height="512pt" viewBox="0 -30 512.00006 512" width="512pt" xmlns="http://www.w3.org/2000/svg"><path d="m494.933594 307.199219h-2.09375l-6.457032-22.597657c-2.171874-7.464843-6.027343-14.332031-11.269531-20.066406h13.019531c7.96875-.023437 14.878907-5.515625 16.699219-13.273437 9.332031-41.839844 9.332031-85.222657 0-127.0625-1.820312-7.753907-8.730469-13.246094-16.699219-13.265625h-43.375c-.121093 0-.222656.0625-.339843.070312-1.835938-11.488281-3.992188-22.972656-6.828125-34.296875-3.800782-15.140625-11.035156-29.203125-21.144532-41.101562-19.238281-22.582031-47.410156-35.5937502-77.074218-35.605469h-49.238282c-9.421874.0078125-17.058593 7.644531-17.066406 17.066406v42.667969c.007813 9.421875 7.644532 17.054687 17.066406 17.066406h17.066407v93.867188h-85.621094v-93.867188h17.066406c9.421875-.011719 17.058594-7.644531 17.066407-17.066406v-42.667969c-.007813-9.421875-7.644532-17.0585935-17.066407-17.066406h-40.703125c-15.882812.273438-31.59375 3.332031-46.421875 9.039062-42.777343 18.097657-56.472656 58.648438-63.050781 87.578126-5.261719 22.515624-8.75 45.414062-10.429688 68.476562-.125 1.828125-.25 3.699219-.371093 5.574219h-17.933594v-80.0625c9.957031-11.410157 11.1875-28.019531 3.023437-40.773438-8.160156-12.75-23.761718-18.585937-38.289062-14.316406-14.53125 4.265625-24.4960938 17.609375-24.46875 32.75.03125 8.238281 3.066406 16.179687 8.535156 22.339844v228.390625c-9.957031 11.40625-11.191406 28.019531-3.027344 40.769531 8.164063 12.753906 23.765626 18.585937 38.292969 14.320313 14.527344-4.265626 24.496094-17.609376 24.464844-32.753907-.03125-8.234375-3.0625-16.175781-8.53125-22.335937v-80.0625h24.15625c3.988281 11.359375 11.628906 25.601562 26.753906 25.601562h93.867188c9.421875-.011718 17.058593-7.648437 17.066406-17.070312v-8.53125h85.621094v8.53125c0 3.359375.996093 6.640625 2.859375 9.429687-9.613282 6.679688-16.640625 16.460938-19.90625 27.707031l-6.742188 23.609376c-11.113281 3.011718-18.839844 13.078124-18.875 24.589843v17.066407h-17.070312c-14.128906.015624-25.582032 11.46875-25.597656 25.597656v59.734375c.007812 9.421875 7.644531 17.058593 17.066406 17.066406h256c9.421875-.007813 17.054687-7.644531 17.066406-17.066406v-110.933594c-.011719-9.421875-7.644531-17.054687-17.066406-17.066406zm-460.800782 0c-2.882812.039062-5.75.445312-8.53125 1.210937v-207.222656c2.78125.769531 5.648438 1.175781 8.53125 1.210938 2.886719-.035157 5.753907-.441407 8.535157-1.210938v207.222656c-2.78125-.765625-5.648438-1.171875-8.535157-1.210937zm0-256c9.425782 0 17.066407 7.640625 17.066407 17.066406s-7.640625 17.066406-17.066407 17.066406c-9.425781 0-17.066406-7.640625-17.066406-17.066406.007813-9.421875 7.644532-17.054687 17.066406-17.066406zm0 307.199219c-9.425781 0-17.066406-7.640626-17.066406-17.066407s7.640625-17.066406 17.066406-17.066406c9.425782 0 17.066407 7.640625 17.066407 17.066406-.007813 9.421875-7.644531 17.058594-17.066407 17.066407zm25.601563-170.664063h17.132813c-.398438 11.433594.429687 22.875 2.472656 34.132813h-19.605469zm144.777344 59.730469h-93.867188c-2.707031 0-8.027343-2.984375-13.265625-22.996094-3.90625-19.15625-4.6875-38.816406-2.3125-58.21875 1.621094-22.179688 4.980469-44.195312 10.046875-65.851562 9.128907-40.152344 25.996094-64.191407 53.101563-75.660157 12.714844-4.785156 26.148437-7.378906 39.726562-7.671875h40.703125v42.667969h-17.066406v-8.535156c0-4.710938-3.820313-8.53125-8.53125-8.53125-4.714844 0-8.535156 3.820312-8.535156 8.53125zm17.355469-25.597656v-34.132813h85.332031v34.132813zm102.398437 25.597656v-196.265625c0-4.710938-3.820313-8.53125-8.53125-8.53125-4.714844 0-8.535156 3.820312-8.535156 8.53125v8.535156h-17.066407v-42.667969h49.238282c11.410156.019532 22.703125 2.34375 33.195312 6.832032 11.917969 5.085937 22.484375 12.875 30.863282 22.757812 8.414062 9.890625 14.4375 21.585938 17.605468 34.175781 3.855469 15.425781 6.753906 31.078125 8.683594 46.859375l6.570312 52.566406c.53125 4.265626 4.15625 7.46875 8.457032 7.476563.359375 0 .714844-.023437 1.066406-.070313 4.675781-.582031 7.992188-4.847656 7.410156-9.523437l-6.265625-50.140625 41.226563-.042969c4.394531 19.621094 6.601562 39.667969 6.582031 59.777344.03125 20.09375-2.195313 40.132813-6.632813 59.730469zm-17.703125 41.828125c4.230469-14.625 17.597656-24.710938 32.820312-24.757813h97.765626c15.226562.042969 28.59375 10.128906 32.816406 24.757813l5.121094 17.90625h-173.640626zm-24.960938 43.507812c.003907-4.710937 3.820313-8.527343 8.53125-8.535156h204.800782v25.601563h-213.332032zm213.332032 102.398438h-256v-59.734375c.007812-4.707032 3.824218-8.523438 8.53125-8.53125h247.46875zm0 0"/><path d="m349.867188 42.667969c-4.714844 0-8.535157 3.820312-8.535157 8.53125v25.601562c0 4.710938 3.820313 8.53125 8.535157 8.53125 4.710937 0 8.53125-3.820312 8.53125-8.53125v-25.601562c0-4.710938-3.820313-8.53125-8.53125-8.53125zm0 0"/><path d="m349.867188 102.398438c-4.714844 0-8.535157 3.820312-8.535157 8.535156v102.398437c0 4.714844 3.820313 8.535157 8.535157 8.535157 4.710937 0 8.53125-3.820313 8.53125-8.535157v-102.398437c0-4.714844-3.820313-8.535156-8.53125-8.535156zm0 0"/></svg>