<svg id="Capa_1" enable-background="new 0 0 512.005 512.005" height="512" viewBox="0 0 512.005 512.005" width="512" xmlns="http://www.w3.org/2000/svg"><g><path d="m350.463 208.376c3.476 9.257 13.779 13.932 23.033 10.457l11.794-4.429c9.232-3.467 13.924-13.799 10.458-23.032-.002-.007-.005-.014-.008-.021-16.295-43.033-11.681-30.851-22.331-58.981-3.475-9.254-13.774-13.932-23.033-10.457l-11.794 4.429c-9.231 3.467-13.924 13.799-10.45 23.052 13.544 35.769 8.472 22.376 22.331 58.982zm27.789-20.851 3.455 9.125c.555 1.488-.202 3.152-1.69 3.711l-11.794 4.429c-1.489.559-3.158-.197-3.724-1.706l-3.406-8.995zm-10.121-26.731 4.81 12.703c-13.987 5.35-12.93 4.946-17.158 6.563l-4.81-12.703c10.27-3.928 8.189-3.132 17.158-6.563zm-24.275-20.409 11.794-4.429c1.484-.557 3.152.18 3.724 1.706l3.447 9.103-17.159 6.563-3.494-9.225c-.561-1.49.197-3.158 1.688-3.718z"/><path d="m467.454 92.327c9.494-9.495 9.495-24.862-.001-34.357h.001c-9.474-9.473-24.885-9.473-34.356 0-9.496 9.495-9.496 24.861 0 34.357 9.471 9.471 24.884 9.471 34.356 0zm-23.75-23.75c3.624-3.624 9.519-3.623 13.143 0h.001c3.632 3.632 3.631 9.511 0 13.143-3.625 3.624-9.521 3.624-13.144 0-3.633-3.632-3.633-9.511 0-13.143z"/><path d="m49.346 433.08c-9.284 9.284-9.284 24.392 0 33.676 9.286 9.284 24.39 9.283 33.676 0 9.284-9.284 9.284-24.392 0-33.676-9.286-9.283-24.391-9.283-33.676 0zm23.068 23.068c-3.436 3.438-9.025 3.438-12.461 0-3.437-3.436-3.437-9.025 0-12.461 3.433-3.435 9.025-3.438 12.461 0 3.437 3.436 3.437 9.026 0 12.461z"/><path d="m264.951 251.15c-2.93-2.928-7.678-2.928-10.607 0l-160.108 160.108c-2.929 2.93-2.929 7.678 0 10.607 2.931 2.929 7.678 2.928 10.607 0l160.107-160.107c2.93-2.93 2.93-7.678.001-10.608z"/><path d="m22.339 493.763c24.957 24.955 65.632 24.219 89.661-1.673l88.568-95.435c2.818-3.036 2.641-7.781-.396-10.599-3.035-2.819-7.781-2.642-10.599.396l-88.568 95.435c-18.217 19.627-49.059 20.269-68.06 1.269-19.03-19.028-18.408-50.056 1.513-68.283l216.849-198.443 49.821 49.821-87.728 94.529c-2.818 3.036-2.641 7.781.396 10.599 3.034 2.819 7.781 2.642 10.599-.396l87.457-94.237c2.841 2.166 6.241 3.266 9.649 3.266 4.082 0 8.163-1.554 11.271-4.661l14.348-14.349c2.705-2.704 4.271-6.235 4.498-10.021l66.591-2.557c13.026-.5 22.303-11.289 22.321-23.078 11.743-11.743 19.499-18.956 29.318-32.054 2.484-3.314 1.812-8.015-1.502-10.5-3.315-2.485-8.015-1.812-10.5 1.502-8.414 11.222-15.216 17.735-21.95 24.47l-20.534-54.689 8.776 2.351c8.056 2.16 16.723-.164 22.621-6.061 9.246-9.246 35.488-35.488 44.579-44.579l-2.324 10.554c-2.96 13.437-7.54 26.593-13.611 39.105-1.809 3.727-.254 8.213 3.473 10.022 3.728 1.809 8.214.254 10.021-3.473 6.585-13.568 11.553-27.843 14.766-42.427l3.957-17.966c.986-4.473-.45-8.95-3.63-11.975.861-3.157.904-6.536.032-9.791l-9.545-35.621c-1.73-6.455-6.814-11.538-13.268-13.267l-29.354-7.865.033-.033c7.332-7.332 2.557-19.872-7.779-20.489l-39.789-2.376c-46.895-2.793-89.808 26.458-104.317 71.157l-30.362 93.537c-5.06-1.19-10.603.167-14.542 4.104l-14.348 14.349c-6.194 6.193-6.211 16.256-.057 22.478l-216.362 197.997c-26.155 23.935-27.144 64.804-1.993 89.957zm413.812-354.003c-2.12 2.119-5.24 2.954-8.132 2.179l-19.142-5.129-18.752-49.942c-.332-.917-.103-1.953.589-2.644l7.497-7.497 7.866 29.354c1.729 6.454 6.813 11.538 13.268 13.268l29.354 7.866zm5.554-103.867 35.621 9.544c1.294.347 2.313 1.366 2.661 2.661l9.544 35.62c.348 1.294-.026 2.688-.975 3.636-1.288 1.288-2.289 2.289-26.08 26.08-.948.945-2.341 1.316-3.63.969l-35.62-9.544c-1.295-.347-2.314-1.367-2.662-2.662l-9.544-35.619c-.347-1.293.025-2.683.969-3.631l26.081-26.081c.952-.95 2.349-1.319 3.635-.973zm-127.434 40.079c12.4-38.201 49.065-63.208 89.155-60.814l33.159 1.981c-7.171 7.171-50.398 50.398-56.478 56.478-4.818 4.816-6.408 12.06-4.052 18.453.005.014.011.028.016.042l48.911 130.265c1.943 5.172-1.708 10.842-7.351 11.06l-73.328 2.815-61.951-61.952zm-62.914 117.965 14.348-14.349c.1-.1.23-.149.361-.149.132 0 .263.05.361.149l69.586 69.586.499.499c.198.198.203.517-.001.722l-14.349 14.349c-.365.366-.96.368-1.325 0-8.267-8.267-60.945-60.944-69.48-69.479-.366-.367-.366-.961 0-1.328z"/></g></svg>